HIERARCHY
ROOT Hips
{
    OFFSET 0.0 0.0 0.0
    CHANNELS 6 Xposition Yposition Zposition Zrotation Xrotation Yrotation
    JOINT LeftHipJoint
    {
        OFFSET 0.1 0.0 0.0
        CHANNELS 3 Zrotation Xrotation Yrotation
        JOINT LeftUpLeg
        {
            OFFSET 7.092677593231201 0.0 0.0
            CHANNELS 3 Zrotation Xrotation Yrotation
            JOINT LeftLeg
            {
                OFFSET 0.0 0.0 -35.08433532714844
                CHANNELS 3 Zrotation Xrotation Yrotation
                JOINT LeftFoot
                {
                    OFFSET 0.0 0.0 -35.41796112060547
                    CHANNELS 3 Zrotation Xrotation Yrotation
                    End Site
                    {
                        OFFSET 0.0 -0.1 0.0
                    }
                }
            }
        }
    }
    JOINT LowerBack
    {
        OFFSET 0.0 0.0 0.1
        CHANNELS 3 Zrotation Xrotation Yrotation
        JOINT Spine
        {
            OFFSET 0.0 0.0 19.448287963867188
            CHANNELS 3 Zrotation Xrotation Yrotation
            JOINT Spine1
            {
                OFFSET 0.0 0.0 21.2198429107666
                CHANNELS 3 Zrotation Xrotation Yrotation
                JOINT LeftShoulder
                {
                    OFFSET 0.1 0.0 0.0
                    CHANNELS 3 Zrotation Xrotation Yrotation
                    JOINT LeftArm
                    {
                        OFFSET 9.190288543701172 0.0 0.0
                        CHANNELS 3 Zrotation Xrotation Yrotation
                        JOINT LeftForeArm
                        {
                            OFFSET 20.642742156982422 0.0 0.0
                            CHANNELS 3 Zrotation Xrotation Yrotation
                            JOINT LeftHand
                            {
                                OFFSET 13.981414794921875 0.0 0.0
                                CHANNELS 3 Zrotation Xrotation Yrotation
                                End Site
                                {
                                    OFFSET 0.1 0.0 0.0
                                }
                            }
                        }
                    }
                }
                JOINT Neck
                {
                    OFFSET 0.0 0.0 0.1
                    CHANNELS 3 Zrotation Xrotation Yrotation
                    JOINT Neck1
                    {
                        OFFSET 0.0 0.0 8.005989074707031
                        CHANNELS 3 Zrotation Xrotation Yrotation
                        End Site
                        {
                            OFFSET 0.0 0.0 10.178332328796387
                        }
                    }
                }
                JOINT RightShoulder
                {
                    OFFSET -0.1 0.0 0.0
                    CHANNELS 3 Zrotation Xrotation Yrotation
                    JOINT RightArm
                    {
                        OFFSET -9.190288543701172 0.0 0.0
                        CHANNELS 3 Zrotation Xrotation Yrotation
                        JOINT RightForeArm
                        {
                            OFFSET -20.642742156982422 0.0 0.0
                            CHANNELS 3 Zrotation Xrotation Yrotation
                            JOINT RightHand
                            {
                                OFFSET -13.981414794921875 0.0 0.0
                                CHANNELS 3 Zrotation Xrotation Yrotation
                                End Site
                                {
                                    OFFSET -0.1 0.0 0.0
                                }
                            }
                        }
                    }
                }
            }
        }
    }
    JOINT RightHipJoint
    {
        OFFSET -0.1 0.0 0.0
        CHANNELS 3 Zrotation Xrotation Yrotation
        JOINT RightUpLeg
        {
            OFFSET -7.092677593231201 0.0 0.0
            CHANNELS 3 Zrotation Xrotation Yrotation
            JOINT RightLeg
            {
                OFFSET 0.0 0.0 -35.08433532714844
                CHANNELS 3 Zrotation Xrotation Yrotation
                JOINT RightFoot
                {
                    OFFSET 0.0 0.0 -35.41796112060547
                    CHANNELS 3 Zrotation Xrotation Yrotation
                    End Site
                    {
                        OFFSET 0.0 -0.1 0.0
                    }
                }
            }
        }
    }
}
MOTION
Frames: 8
Frame Time: 0.03333333333333333
-0.0007021311903372407 77.75345611572266 -0.0015491783851757646 -63.70334401303195 3.090609309906012 -106.72161365393761 -9.541664044390547e-15 3.1805546814635156e-15 3.1805546814635164e-15 -13.237662171253787 -36.91516366191352 -5.663520495909024 9.495497638267185 30.381448704561503 -7.9137607972774076 -3.180554681463516e-15 8.827812596100317e-32 -3.180554681463516e-15 -9.541664044390547e-15 3.1805546814635156e-15 3.1805546814635164e-15 -2.41968029122619 -7.873526269495537 -5.43471705778512 -10.89768963099492 3.90805482306715e-06 2.845997691759342e-06 6.3611093629270335e-15 -1.7655625192200634e-31 -3.1805546814635168e-15 -69.13294616350152 -13.52335240609054 27.191938462920827 -107.12569763273812 2.618048127378539e-06 6.126214407276529e-06 6.3611093629270335e-15 -3.1805546814635168e-15 1.7655625192200634e-31 6.3611093629270335e-15 -1.7655625192200634e-31 -3.1805546814635168e-15 39.80326509204835 7.671984229621467 12.428502823029643 6.3611093629270335e-15 -1.7655625192200634e-31 -3.1805546814635168e-15 31.662404280695977 -1.926411720550755 -53.393385017769205 116.42251978192664 -1.1269770685292137e-06 -6.95610691891529e-07 7.951386703658792e-16 0.0 0.0 -9.541664044390547e-15 3.1805546814635156e-15 3.1805546814635164e-15 -17.78123929129309 -44.96134917965066 -16.00003049627412 8.475121544560453 44.88208914749397 -15.840054910243161 4.770832022195277e-15 -3.1805546814635183e-15 -9.541664044390553e-15
-0.0006704645929858088 77.75348663330078 -0.001589374733157456 -63.349528962243646 3.6425367611884947 -107.60183114200973 0.0 6.3611093629270335e-15 0.0 -12.954769425266402 -37.85858107906912 -4.481815038137674 10.039151619311474 31.201447626678227 -9.086269201582605 3.1805546814635168e-15 0.0 0.0 0.0 6.3611093629270335e-15 0.0 -2.2496490851080573 -7.738451494921702 -5.012319436005388 -10.783555838274367 -2.179706175259321e-06 -2.419867937654033e-06 -3.1805546814635168e-15 -8.827812596100317e-32 3.1805546814635168e-15 -68.63119776975243 -15.015062526698566 27.355766148752583 -107.26063668206446 2.664199627147572e-06 9.168959803420029e-07 -3.1805546814635164e-15 6.361109362927033e-15 1.7655625192200634e-31 -3.1805546814635168e-15 -8.827812596100317e-32 3.1805546814635168e-15 39.98055584745585 7.2414041528470365 12.879928705916322 -3.1805546814635168e-15 -8.827812596100317e-32 3.1805546814635168e-15 31.718208418196166 -3.149209078171535 -51.920647017468106 115.65722092164597 -1.325764506356543e-06 1.113639444140792e-06 -3.9756933518293955e-16 0.0 0.0 0.0 6.3611093629270335e-15 0.0 -17.129908852301725 -45.50820392149596 -15.227798432617956 8.296213665164105 45.226129680724455 -16.00172462482855 -4.770832022195274e-15 -3.1805546814635164e-15 -1.3241718894150476e-31
-0.0007277143886312842 77.75347137451172 -0.0015918094431981444 -62.97680978589083 4.039088187520838 -107.57456694504681 0.0 -6.3611093629270335e-15 0.0 -13.53891188358047 -38.79810918812311 -5.124615131736282 10.477660894736546 32.57211912311782 -9.717267846321116 3.1805546814635164e-15 1.7655625192200634e-31 6.361109362927033e-15 0.0 -6.3611093629270335e-15 0.0 -2.268679344721292 -7.729202667301053 -5.315516250319275 -10.234439376651792 3.9688850382824825e-06 1.3892769388808577e-06 0.0 0.0 3.1805546814635168e-15 -69.20164125629069 -13.775700353054722 27.959856787706965 -108.13342984988735 2.584253495322898e-06 1.3877100204210648e-07 0.0 0.0 0.0 0.0 0.0 3.1805546814635168e-15 42.33309042625674 8.124526752174223 12.858404713849726 0.0 0.0 3.1805546814635168e-15 32.210296799054355 -2.5610045755003905 -53.02047209193176 116.76210556537916 1.4005485221632087e-06 1.5781675151182934e-06 2.5842006786891076e-15 1.5902773407317584e-15 -3.586298867165754e-32 0.0 -6.3611093629270335e-15 0.0 -17.37952271785829 -45.6339078307392 -15.992078983124696 7.9631311279987855 45.850240407029936 -15.421339374949605 -2.648343778830095e-31 -6.3611093629270335e-15 -4.770832022195275e-15
-0.0007413415005430579 77.75349426269531 -0.001555371331050992 -62.93253272145037 4.196705655069198 -108.05244861040913 9.54166404439055e-15 0.0 0.0 -13.417015335745319 -39.06679322591758 -4.997402247617701 10.361105845177956 32.56591871486771 -8.745653760022131 0.0 0.0 0.0 9.54166404439055e-15 0.0 0.0 -2.135275268976056 -7.413918869105209 -4.656572737885721 -10.30905443894904 1.8259076282847707e-06 -1.985171590643256e-06 -3.1805546814635168e-15 0.0 0.0 -69.40371736981044 -13.618929303825151 28.48966513050498 -107.41356994460843 -2.9918887742277136e-06 5.193906766372892e-07 6.3611093629270335e-15 -4.770832022195275e-15 6.3611093629270335e-15 -3.1805546814635168e-15 0.0 0.0 40.725768684330575 8.333821176024985 12.66759794723205 -3.1805546814635168e-15 0.0 0.0 33.56701692145385 -2.5735453665384935 -52.8961382349115 115.39362278656284 1.036108114170626e-06 -2.0714655256766971e-07 -3.975693351829396e-16 3.975693351829396e-16 3.1805546814635168e-15 9.54166404439055e-15 0.0 0.0 -17.021383233674413 -45.5829454985886 -15.374228600933202 8.028978749849035 45.43476700965041 -15.468495088424387 1.5902773407317584e-15 -6.620859447075238e-32 -4.770832022195275e-15
-0.0006906584603711963 77.75350189208984 -0.0015800634864717722 -62.232466063437656 4.61546175516945 -108.6904082628571 -9.54166404439055e-15 -2.648343778830095e-31 3.1805546814635168e-15 -13.138805932842052 -40.2093575495771 -4.059327847517289 10.657097563241809 33.14735438612702 -9.560968010662087 0.0 0.0 0.0 -9.54166404439055e-15 -2.648343778830095e-31 3.1805546814635168e-15 -2.1300058500172603 -7.856392797539771 -3.9259786185722123 -10.436047266226579 1.2475153833770073e-06 -2.3355938638170717e-07 3.1805546814635168e-15 0.0 0.0 -67.33174435102711 -16.663024245000152 29.20610182636217 -109.68365193945786 2.633468868601549e-06 5.230294424423462e-06 3.1805546814635168e-15 3.1805546814635168e-15 -6.3611093629270335e-15 3.1805546814635168e-15 0.0 0.0 41.18332274732116 7.300446578978571 12.438885793441882 3.1805546814635168e-15 0.0 0.0 33.11914913556957 -2.6276588149895255 -51.89575078026475 115.7226167511005 -6.582245504591795e-07 -6.097872952578318e-08 3.975693351829396e-16 1.5902773407317584e-15 -3.1805546814635168e-15 -9.54166404439055e-15 -2.648343778830095e-31 3.1805546814635168e-15 -16.58090248694522 -46.602643781915155 -14.556222355285529 8.063683291073989 45.9258108423282 -16.081505270607057 -7.95138670365879e-15 3.1805546814635164e-15 -1.590277340731758e-15
-0.0007463018991984427 77.75350189208984 -0.0015779874520376325 -61.57669692126177 4.693603300703763 -108.68589715739726 6.3611093629270335e-15 -1.7655625192200634e-31 -3.1805546814635168e-15 -13.69418053632596 -41.056248610695135 -5.147235864757737 10.407576217810297 33.62157718730557 -9.085338705113383 0.0 0.0 0.0 6.3611093629270335e-15 -1.7655625192200634e-31 -3.1805546814635168e-15 -2.2021878093665035 -8.033444769387605 -3.8122870826471225 -10.218378095448829 2.25254285420932e-06 -6.710838464623417e-07 0.0 0.0 0.0 -66.76277402620941 -15.846727812278463 29.21318649286763 -111.64868522576376 4.203279816097528e-06 -6.62351675088789e-07 3.1805546814635168e-15 0.0 0.0 0.0 0.0 0.0 42.8241286431194 7.615527039278293 12.199546149997857 0.0 0.0 0.0 34.096524118204066 -1.5129145304192777 -52.900453938615094 117.4258859166315 2.4905831862479004e-06 1.1221818693114719e-07 7.951386703658792e-16 -2.2069531490250793e-32 -3.1805546814635168e-15 6.3611093629270335e-15 -1.7655625192200634e-31 -3.1805546814635168e-15 -17.0611739632844 -47.08845623673948 -15.456437664683873 7.6262413176439745 46.06836999508024 -14.58304947715667 -1.5902773407317584e-15 -3.1805546814635168e-15 -4.770832022195275e-15
-0.0007756363484077156 77.75348663330078 -0.0015568017261102796 -61.570601888707124 4.138883710695463 -108.97800660865168 0.0 0.0 0.0 -13.52710434896557 -41.162741445852284 -4.764126749151259 10.053858696349144 32.53273816744994 -8.263835209562094 3.1805546814635164e-15 -8.827812596100317e-32 -3.1805546814635164e-15 0.0 0.0 0.0 -2.1916435612029925 -8.120796743980401 -3.1515994832147403 -10.230674425813685 -3.91910203768899e-06 -1.501809177118814e-06 3.1805546814635168e-15 6.3611093629270335e-15 -3.1805546814635168e-15 -66.19551771911644 -16.48377168263653 28.98110377416035 -112.09134027837138 1.0273784785373098e-06 3.326700064893897e-06 0.0 -3.1805546814635168e-15 0.0 3.1805546814635168e-15 6.3611093629270335e-15 -3.1805546814635168e-15 41.21813901607128 8.505570817639288 12.206541109684618 3.1805546814635168e-15 6.3611093629270335e-15 -3.1805546814635168e-15 35.261291595545934 -0.9246194869892597 -52.72558218324521 116.27585451947644 -4.4625158982600626e-07 1.2475604090414629e-06 4.174478019420866e-15 3.975693351829396e-16 -1.4483130040477084e-32 0.0 0.0 0.0 -16.988735471778675 -47.41935478228887 -14.688957949502235 8.123374256590761 45.695224468822744 -15.424155003505506 -6.3611093629270335e-15 6.3611093629270335e-15 3.531125038440127e-31
-0.000653219991363585 77.75341796875 -0.0015279785729944706 -61.09302243544504 5.204837204004758 -109.30652073276238 -3.1805546814635168e-15 3.1805546814635168e-15 -6.3611093629270335e-15 -12.775414008023017 -41.62715039713297 -3.77676155951491 9.833097019797528 32.40087973271156 -8.1061743106018 -3.1805546814635168e-15 8.827812596100317e-32 -3.1805546814635168e-15 -3.1805546814635168e-15 3.1805546814635168e-15 -6.3611093629270335e-15 -1.9159118016242056 -7.639508004909027 -2.497833722542015 -9.99585007775984 3.5079594615216947e-06 -2.1374808277728946e-06 3.1805546814635168e-15 6.3611093629270335e-15 -6.3611093629270335e-15 -63.3828302191311 -18.200090754334873 29.197173490835866 -112.0809849439484 -7.459096763020375e-07 3.5788845651823187e-06 -3.1805546814635168e-15 0.0 0.0 3.1805546814635168e-15 6.3611093629270335e-15 -6.3611093629270335e-15 40.96779818730976 8.367481601839042 11.772602448652554 3.1805546814635168e-15 6.3611093629270335e-15 -6.3611093629270335e-15 34.98412333846649 -0.8192735324266208 -51.68454126485736 116.23574460050993 -7.138177441467745e-07 3.8859423671701236e-07 3.975693351829396e-16 0.0 0.0 -3.1805546814635168e-15 3.1805546814635168e-15 -6.3611093629270335e-15 -15.996644936031409 -47.81984275858734 -13.40013680564957 8.115645219599555 46.02160842434541 -15.624971219224996 3.1805546814635164e-15 0.0 0.0
